<svg width="134" height="51" viewBox="0 0 134 51" fill="none" xmlns="http://www.w3.org/2000/svg">
<path d="M42.03 33.51C41.28 37.64 40.53 41.78 39.77 45.97H36.44C35.24 40.34 34.06 34.76 32.84 29.04H35.67C36.42 33.19 37.16 37.32 37.91 41.45C38 41.45 38.09 41.47 38.18 41.48C38.74 39.46 38.98 37.36 39.37 35.31C39.76 33.25 40.13 31.18 40.53 29.03H43.96C44.71 33.18 45.46 37.31 46.21 41.44C47.08 39.46 47.28 37.36 47.68 35.3C48.09 33.24 48.43 31.17 48.82 29.03H51.51C50.4 34.7 49.15 40.25 47.95 45.93H44.62C43.88 41.82 43.12 37.67 42.37 33.51C42.26 33.51 42.14 33.51 42.03 33.51Z" fill="#F5F5F5"/>
<path d="M33.16 14.91C33.96 17.08 34.71 19.13 35.51 21.3H31.75C31.12 19.51 30.45 17.63 29.77 15.7H26.44V21.27H23.2C22.85 20.28 22.8 5.69997 23.18 4.21997C23.81 4.21997 24.49 4.21997 25.17 4.21997C27 4.23997 28.83 4.21997 30.66 4.31997C32.83 4.44997 34.61 5.32997 35.28 7.55997C36 9.96997 35.83 12.28 33.92 14.19C33.7 14.41 33.46 14.62 33.16 14.9V14.91ZM26.48 12.65C27.64 12.65 28.72 12.7 29.8 12.64C31.21 12.56 32.02 11.61 32.09 10.08C32.16 8.55997 31.44 7.45997 30.07 7.29997C28.92 7.16997 27.74 7.26997 26.49 7.26997V12.65H26.48Z" fill="#F5812A"/>
<path d="M107.89 18.48V15.43C107.43 15.31 106.96 15.2 106.44 15.07V12.48C107.38 12.14 109.55 12.08 111.32 12.38C111.39 15.21 111.34 18.07 111.35 21.06C108.39 21.55 105.52 22.1 102.61 21.3C100.9 20.83 99.72 19.67 99.24 17.97C98.89 16.7 98.61 15.37 98.6 14.06C98.58 12.2 98.66 10.29 99.01 8.47C99.52 5.78999 101.1 4.46999 103.79 4.07999C106.32 3.71999 108.78 4.12999 111.22 4.66999V7.26999C109.89 7.19999 108.67 7.10999 107.44 7.06999C106.62 7.04999 105.78 7.02999 104.97 7.13999C103.4 7.32999 102.39 8.24 102.29 9.79999C102.16 11.76 102.13 13.74 102.29 15.7C102.47 17.76 103.48 18.55 105.56 18.67C106.06 18.7 106.57 18.67 107.07 18.65C107.29 18.64 107.51 18.57 107.89 18.49V18.48Z" fill="#F5812A"/>
<path d="M117.24 4.32H128.17V7.27H120.71V11.23H126.59V14.21H120.72V18.34H128.17V21.28H117.35C117.08 20.31 116.98 6.76 117.24 4.31V4.32Z" fill="#F5812A"/>
<path d="M9.03 16.4V21.29C7.85 21.29 6.81 21.29 5.78 21.29C5.5 20.33 5.4 6.45998 5.66 4.43998C5.76 4.37998 5.88 4.25998 6 4.25998C8.42 4.27998 10.86 4.17998 13.27 4.37998C16.05 4.60998 17.54 6.18998 17.84 8.97998C17.95 10.01 17.91 11.09 17.74 12.11C17.37 14.31 15.85 15.77 13.64 16.17C12.88 16.31 12.1 16.34 11.32 16.37C10.64 16.4 9.96 16.37 9.03 16.37V16.4ZM9.09 13.37C10.28 13.37 11.33 13.47 12.35 13.33C12.88 13.26 13.47 12.88 13.83 12.47C14.63 11.55 14.67 9.13998 13.96 8.15998C13.73 7.84998 13.37 7.53998 13.01 7.42998C11.73 7.01998 10.43 7.16998 9.09 7.25998V13.37Z" fill="#F5812A"/>
<path d="M41.26 4.32001H52.09V7.27001H44.62V11.26H50.57V14.13C48.62 14.44 46.66 14.08 44.63 14.35V18.32C47.09 18.46 49.55 18.29 52.07 18.42V21.29H41.29C41 20.18 40.97 5.74001 41.26 4.33001V4.32001Z" fill="#F5812A"/>
<path d="M74.46 28.96C76.98 28.93 79.45 28.75 81.89 29.25C83.8 29.64 85.35 30.52 85.73 32.65C86.14 34.92 85.34 36.65 83.35 37.89C83.2 37.98 83.05 38.09 82.82 38.24C84.49 40.54 85.17 43.24 86.35 45.98C85.43 46 84.72 46.03 84.01 46.04C83.49 46.05 83.32 45.68 83.16 45.28C82.68 44.04 82.21 42.8 81.72 41.57C80.79 39.2 79.81 38.71 77.1 39.37V45.96H74.54C74.21 45.04 74.1 30.93 74.45 28.97L74.46 28.96ZM77.21 36.77C79.12 36.97 80.54 36.82 81.53 36.34C82.63 35.81 83.18 34.81 83.06 33.55C82.96 32.47 82.4 31.85 81.17 31.52C79.89 31.17 78.59 31.18 77.21 31.37V36.77Z" fill="#F5F5F5"/>
<path d="M68.09 4.71997C67.99 5.59997 67.9 6.39997 67.8 7.29997C66.36 7.19997 65.01 7.06997 63.65 7.01997C62.92 6.98997 62.18 7.01997 61.47 7.14997C60.75 7.27997 60.22 7.70997 60.12 8.50997C60.01 9.29997 60.38 9.85997 61.06 10.17C61.76 10.5 62.5 10.74 63.23 11.02C64.25 11.42 65.3 11.75 66.29 12.23C67.63 12.88 68.31 14.02 68.42 15.52C68.7 19.25 66.65 21.56 62.9 21.67C60.88 21.73 58.91 21.37 56.84 20.84C56.97 19.96 57.08 19.16 57.21 18.26C58.48 18.38 59.65 18.53 60.83 18.59C61.69 18.63 62.57 18.65 63.42 18.5C64.45 18.32 64.92 17.66 64.99 16.69C65.06 15.75 64.76 15.26 63.71 14.83C62.95 14.52 62.15 14.32 61.38 14.02C60.53 13.7 59.65 13.39 58.85 12.97C57.05 12.01 56.49 10.38 56.66 8.44997C56.82 6.54997 57.7 5.09997 59.54 4.47997C60.56 4.13997 61.69 3.96997 62.77 3.96997C64.54 3.96997 66.3 4.19997 68.11 4.72997L68.09 4.71997Z" fill="#F5812A"/>
<path d="M94.11 31.27V35.81H101.05V38.04H94.12V43.66H101.5V45.8C100.55 46.14 92.65 46.19 91.29 45.84V29.04H101.53V31.28H94.11V31.27Z" fill="#F5F5F5"/>
<path d="M63.95 28.99C65.87 34.58 67.77 40.16 69.7 45.78C68.8 46.23 67.93 46.07 67.1 45.96C66.87 45.93 66.63 45.45 66.52 45.13C66.12 43.97 65.77 42.79 65.39 41.59H59.39C59.06 42.65 58.73 43.73 58.39 44.81C58 46.04 58 46.05 56.67 46.04C56.23 46.04 55.79 45.99 55.15 45.95C57.13 40.17 59.05 34.57 60.96 28.98H63.94L63.95 28.99ZM64.7 39.25C63.95 36.8 63.26 34.58 62.57 32.35C62.46 32.35 62.35 32.35 62.24 32.36C61.55 34.62 60.77 36.85 60.19 39.25H64.7Z" fill="#F5F5F5"/>
<path d="M80.29 21.32H76.95C76.65 19.77 76.85 18.22 76.82 16.69C76.78 15.18 76.82 13.67 76.82 12.16C76.82 10.65 76.82 9.06 76.82 7.38H72.38V4.45C73.39 4.14 83.51 4.11 84.78 4.45V7.32H80.3V21.33L80.29 21.32Z" fill="#F5812A"/>
<path d="M92.78 21.3H89.63V4.33002H92.73C93.08 5.35002 93.13 19.88 92.78 21.31V21.3Z" fill="#F5812A"/>
</svg>
