<svg width="12" height="10" viewBox="0 0 12 10" fill="none" xmlns="http://www.w3.org/2000/svg">
<path d="M10.8868 0.031508C11.1743 0.125729 11.2569 0.492761 11.0421 0.705738C8.38258 3.3425 6.43661 6.60272 5.10806 9.50324C5.04697 9.63658 4.92007 9.72764 4.77427 9.74234C4.36072 9.78405 3.94034 9.86852 3.53219 9.98447C3.31661 10.0457 3.09302 9.92185 3.02617 9.70791C2.54494 8.16624 1.39485 6.94212 0.113542 5.91777C-0.0186372 5.81214 -0.0387277 5.61794 0.0707753 5.48882C0.509115 4.97176 1.0834 4.56972 1.71784 4.33005C2.06724 4.1981 2.46236 4.29997 2.70639 4.58287C3.13487 5.07985 3.62949 5.74612 4.11049 6.56524C6.23585 3.28204 8.679 1.09512 10.3721 0.0883725C10.5364 -0.00929135 10.7229 -0.0222235 10.8868 0.031508Z" fill="white"/>
</svg>
