<svg width="133" height="132" viewBox="0 0 133 132" fill="none" xmlns="http://www.w3.org/2000/svg">
<path d="M66.17 6.05997C84.6 6.05997 103.04 6.05997 121.47 6.05997C125.44 6.05997 125.59 6.20997 125.59 10.08C125.59 47.02 125.59 83.97 125.59 120.91C125.59 124.78 125.36 125 121.5 125C116.52 125 111.54 124.91 106.57 125.04C104.52 125.09 103.08 124.41 101.65 122.98C79.36 100.62 57.02 78.3 34.69 55.97C26 47.28 17.34 38.56 8.59998 29.93C7.16998 28.52 6.45998 27.09 6.50998 25.04C6.63998 19.99 6.54998 14.93 6.55998 9.87997C6.55998 9.17997 6.55998 8.47997 6.63998 7.77997C6.74998 6.79997 7.33998 6.22997 8.30998 6.12997C9.07998 6.04997 9.85998 6.05997 10.64 6.05997C29.15 6.05997 47.66 6.05997 66.17 6.05997ZM43.56 28.94C44.48 29.93 44.99 30.5 45.52 31.03C64.39 49.84 83.27 68.64 102.15 87.44C102.19 87.48 102.3 87.47 102.37 87.46C102.44 87.44 102.51 87.39 102.58 87.36C103.09 83.48 102.86 30.61 102.3 28.94H43.56Z" fill="#F5F5F5"/>
<path d="M40.97 125.13C30.87 125.13 20.76 125.13 10.66 125.13C9.96001 125.13 9.26001 125.14 8.56001 125.1C7.39001 125.02 6.69001 124.41 6.61001 123.2C6.57001 122.66 6.56001 122.11 6.56001 121.57C6.56001 100.98 6.56001 80.38 6.56001 59.79C6.56001 59.17 6.53001 58.54 6.64001 57.93C6.91001 56.36 8.24001 55.74 9.58001 56.58C10.1 56.9 10.53 57.37 10.97 57.81C32 78.88 53.02 99.95 74.05 121.02C74.38 121.35 74.74 121.67 75 122.05C75.97 123.47 75.36 124.84 73.62 125.08C72.93 125.18 72.22 125.13 71.52 125.13C61.34 125.13 51.16 125.13 40.98 125.13H40.97Z" fill="#F5812A"/>
</svg>
