<svg width="131" height="140" viewBox="0 0 131 140" fill="none" xmlns="http://www.w3.org/2000/svg">
<path d="M65.62 5.28999C76.48 5.28999 87.34 5.28999 98.19 5.28999C100.53 5.28999 100.62 5.37999 100.62 7.65999C100.62 29.42 100.62 51.18 100.62 72.95C100.62 75.23 100.49 75.36 98.21 75.36C95.28 75.36 92.34 75.31 89.41 75.39C88.2 75.42 87.35 75.02 86.51 74.18C73.38 61.01 60.22 47.86 47.07 34.71C41.95 29.59 36.85 24.46 31.7 19.37C30.86 18.54 30.44 17.7 30.47 16.49C30.55 13.51 30.5 10.53 30.5 7.55999C30.5 7.14999 30.5 6.72999 30.55 6.32999C30.61 5.74999 30.96 5.41999 31.53 5.35999C31.98 5.31999 32.44 5.31999 32.9 5.31999C43.8 5.31999 54.71 5.31999 65.61 5.31999L65.62 5.28999ZM52.3 18.77C52.84 19.35 53.14 19.69 53.46 20C64.58 31.08 75.7 42.16 86.82 53.23C86.84 53.25 86.91 53.25 86.95 53.23C86.99 53.23 87.03 53.19 87.07 53.17C87.37 50.88 87.23 19.74 86.9 18.76H52.3V18.77Z" fill="#F5F5F5"/>
<path d="M50.77 75.43C44.82 75.43 38.87 75.43 32.92 75.43C32.51 75.43 32.1 75.43 31.68 75.41C30.99 75.37 30.58 75 30.53 74.29C30.51 73.97 30.5 73.65 30.5 73.33C30.5 61.2 30.5 49.07 30.5 36.93C30.5 36.56 30.48 36.19 30.54 35.83C30.7 34.9 31.48 34.54 32.27 35.04C32.58 35.23 32.83 35.51 33.09 35.77C45.48 48.18 57.86 60.59 70.25 73C70.44 73.19 70.65 73.38 70.81 73.61C71.38 74.45 71.02 75.25 70 75.4C69.59 75.46 69.18 75.43 68.77 75.43C62.77 75.43 56.78 75.43 50.78 75.43H50.77Z" fill="#F5812A"/>
<path d="M40.21 121.88C39.46 126.01 38.71 130.15 37.95 134.34H34.62C33.42 128.71 32.24 123.13 31.02 117.41H33.85C34.6 121.56 35.34 125.69 36.09 129.82C36.18 129.82 36.27 129.84 36.36 129.85C36.92 127.83 37.16 125.73 37.55 123.68C37.94 121.62 38.31 119.55 38.71 117.4H42.14C42.89 121.55 43.64 125.68 44.39 129.81C45.26 127.83 45.46 125.73 45.86 123.67C46.27 121.61 46.61 119.54 47 117.4H49.69C48.58 123.07 47.33 128.62 46.13 134.3H42.8C42.06 130.19 41.3 126.04 40.55 121.88C40.44 121.88 40.32 121.88 40.21 121.88Z" fill="#F5F5F5"/>
<path d="M31.34 103.28C32.14 105.45 32.89 107.5 33.69 109.67H29.93C29.3 107.88 28.63 106 27.95 104.07H24.62V109.64H21.38C21.03 108.65 20.98 94.07 21.36 92.59C21.99 92.59 22.67 92.59 23.35 92.59C25.18 92.61 27.01 92.59 28.84 92.69C31.01 92.82 32.79 93.7 33.46 95.93C34.18 98.34 34.01 100.65 32.1 102.56C31.88 102.78 31.64 102.99 31.34 103.27V103.28ZM24.66 101.02C25.82 101.02 26.9 101.07 27.98 101.01C29.39 100.93 30.2 99.98 30.27 98.45C30.34 96.93 29.62 95.83 28.25 95.67C27.1 95.54 25.92 95.64 24.67 95.64V101.02H24.66Z" fill="#F5812A"/>
<path d="M106.07 106.84V103.79C105.61 103.67 105.14 103.56 104.62 103.43V100.84C105.56 100.5 107.73 100.44 109.5 100.74C109.57 103.57 109.52 106.43 109.53 109.42C106.57 109.91 103.7 110.46 100.79 109.66C99.08 109.19 97.9 108.03 97.42 106.33C97.07 105.06 96.79 103.73 96.78 102.42C96.76 100.56 96.84 98.65 97.19 96.83C97.7 94.15 99.28 92.83 101.97 92.44C104.5 92.08 106.96 92.49 109.4 93.03V95.63C108.07 95.56 106.85 95.47 105.62 95.43C104.8 95.41 103.96 95.39 103.15 95.5C101.58 95.69 100.57 96.6 100.47 98.16C100.34 100.12 100.31 102.1 100.47 104.06C100.65 106.12 101.66 106.91 103.74 107.03C104.24 107.06 104.75 107.03 105.25 107.01C105.47 107 105.69 106.93 106.07 106.85V106.84Z" fill="#F5812A"/>
<path d="M115.42 92.69H126.35V95.64H118.89V99.6H124.77V102.58H118.9V106.71H126.35V109.65H115.53C115.26 108.68 115.16 95.13 115.42 92.68V92.69Z" fill="#F5812A"/>
<path d="M7.22 104.77V109.66C6.04 109.66 5 109.66 3.97 109.66C3.69 108.7 3.59 94.83 3.85 92.81C3.95 92.75 4.07 92.63 4.19 92.63C6.61 92.65 9.05 92.55 11.46 92.75C14.24 92.98 15.73 94.56 16.03 97.35C16.14 98.38 16.1 99.46 15.93 100.48C15.56 102.68 14.04 104.14 11.83 104.54C11.07 104.68 10.29 104.71 9.51 104.74C8.83 104.77 8.15 104.74 7.22 104.74V104.77ZM7.27 101.74C8.46 101.74 9.51 101.84 10.53 101.7C11.06 101.63 11.65 101.25 12.01 100.84C12.81 99.92 12.85 97.51 12.14 96.53C11.91 96.22 11.55 95.91 11.19 95.8C9.91 95.39 8.61 95.54 7.27 95.63V101.74Z" fill="#F5812A"/>
<path d="M39.44 92.69H50.27V95.64H42.8V99.63H48.75V102.5C46.8 102.81 44.84 102.45 42.81 102.72V106.69C45.27 106.83 47.73 106.66 50.25 106.79V109.66H39.47C39.18 108.55 39.15 94.11 39.44 92.7V92.69Z" fill="#F5812A"/>
<path d="M72.64 117.33C75.16 117.3 77.63 117.12 80.07 117.62C81.98 118.01 83.53 118.89 83.91 121.02C84.32 123.29 83.52 125.02 81.53 126.26C81.38 126.35 81.23 126.46 81 126.61C82.67 128.91 83.35 131.61 84.53 134.35C83.61 134.37 82.9 134.4 82.19 134.41C81.67 134.42 81.5 134.05 81.34 133.65C80.86 132.41 80.39 131.17 79.9 129.94C78.97 127.57 77.99 127.08 75.28 127.74V134.33H72.72C72.39 133.41 72.28 119.3 72.63 117.34L72.64 117.33ZM75.39 125.14C77.3 125.34 78.72 125.19 79.71 124.71C80.81 124.18 81.36 123.18 81.24 121.92C81.14 120.84 80.58 120.22 79.35 119.89C78.07 119.54 76.77 119.55 75.39 119.74V125.14Z" fill="#F5F5F5"/>
<path d="M66.27 93.09C66.17 93.97 66.08 94.77 65.98 95.67C64.54 95.57 63.19 95.44 61.83 95.39C61.1 95.36 60.36 95.39 59.65 95.52C58.93 95.65 58.4 96.08 58.3 96.88C58.19 97.67 58.56 98.23 59.24 98.54C59.94 98.87 60.68 99.11 61.41 99.39C62.43 99.79 63.48 100.12 64.47 100.6C65.81 101.25 66.49 102.39 66.6 103.89C66.88 107.62 64.83 109.93 61.08 110.04C59.06 110.1 57.09 109.74 55.02 109.21C55.15 108.33 55.26 107.53 55.39 106.63C56.66 106.75 57.83 106.9 59.01 106.96C59.87 107 60.75 107.02 61.6 106.87C62.63 106.69 63.1 106.03 63.17 105.06C63.24 104.12 62.94 103.63 61.89 103.2C61.13 102.89 60.33 102.69 59.56 102.39C58.71 102.07 57.83 101.76 57.03 101.34C55.23 100.38 54.67 98.75 54.84 96.82C55 94.92 55.88 93.47 57.72 92.85C58.74 92.51 59.87 92.34 60.95 92.34C62.72 92.34 64.48 92.57 66.29 93.1L66.27 93.09Z" fill="#F5812A"/>
<path d="M92.29 119.64V124.18H99.23V126.41H92.3V132.03H99.68V134.17C98.73 134.51 90.83 134.56 89.47 134.21V117.41H99.71V119.65H92.29V119.64Z" fill="#F5F5F5"/>
<path d="M62.13 117.36C64.05 122.95 65.95 128.53 67.88 134.15C66.98 134.6 66.11 134.44 65.28 134.33C65.05 134.3 64.81 133.82 64.7 133.5C64.3 132.34 63.95 131.16 63.57 129.96H57.57C57.24 131.02 56.91 132.1 56.57 133.18C56.18 134.41 56.18 134.42 54.85 134.41C54.41 134.41 53.97 134.36 53.33 134.32C55.31 128.54 57.23 122.94 59.14 117.35H62.12L62.13 117.36ZM62.88 127.62C62.13 125.17 61.44 122.95 60.75 120.72C60.64 120.72 60.53 120.72 60.42 120.73C59.73 122.99 58.95 125.22 58.37 127.62H62.88Z" fill="#F5F5F5"/>
<path d="M78.47 109.69H75.13C74.83 108.14 75.03 106.59 75 105.06C74.96 103.55 75 102.04 75 100.53C75 99.02 75 97.43 75 95.75H70.56V92.82C71.57 92.51 81.69 92.48 82.96 92.82V95.69H78.48V109.7L78.47 109.69Z" fill="#F5812A"/>
<path d="M90.96 109.67H87.81V92.69H90.91C91.26 93.71 91.31 108.24 90.96 109.67Z" fill="#F5812A"/>
</svg>
