<svg width="205" height="206" viewBox="0 0 205 206" fill="none" xmlns="http://www.w3.org/2000/svg">
<path d="M30.6691 52.8796C30.5734 52.8234 30.4526 52.8341 30.3682 52.9062L27.9612 54.9633C26.5493 54.5242 25.0572 54.3072 23.5359 54.3433L21.7862 51.7069C21.7248 51.6144 21.6115 51.5711 21.5041 51.5989L17.828 52.5528C17.7205 52.5806 17.6426 52.6736 17.6339 52.7842L17.3868 55.9387C16.0398 56.6467 14.8414 57.5618 13.821 58.632L10.7176 58.0045C10.6088 57.9826 10.498 58.032 10.4418 58.1277L8.51678 61.4015C8.46054 61.4972 8.47113 61.6181 8.54328 61.7024L10.6004 64.1093C10.1614 65.5213 9.94429 67.0134 9.98049 68.5347L7.34405 70.2844C7.25158 70.3458 7.20816 70.459 7.23606 70.5664L8.18983 74.2427C8.21772 74.3501 8.31072 74.428 8.42134 74.4366L11.576 74.6838C12.2839 76.0308 13.199 77.2292 14.2692 78.2495L13.6417 81.353C13.6198 81.4618 13.6691 81.5726 13.7648 81.6288L17.0387 83.5538C17.1344 83.61 17.2552 83.5994 17.3396 83.5273L19.7465 81.4702C21.1584 81.9092 22.6506 82.1262 24.1719 82.0901L25.9216 84.7265C25.9829 84.819 26.0962 84.8624 26.2036 84.8345L29.8798 83.8807C29.9873 83.8528 30.0652 83.7599 30.0738 83.6492L30.3211 80.4947C31.668 79.7867 32.8664 78.8715 33.8868 77.8014L36.9902 78.4289C37.0989 78.4509 37.2097 78.4015 37.266 78.3057L39.191 75.0319C39.2472 74.9362 39.2366 74.8154 39.1645 74.731L37.1073 72.3241C37.5464 70.9121 37.7634 69.42 37.7273 67.8987L40.3638 66.149C40.4562 66.0876 40.4995 65.9744 40.4717 65.8669L39.5179 62.1907C39.49 62.0833 39.397 62.0054 39.2864 61.9967L36.1319 61.7495C35.4239 60.4026 34.5088 59.2042 33.4387 58.1838L34.0661 55.0803C34.0881 54.9715 34.0386 54.8608 33.943 54.8045L30.6691 52.8796Z" fill="#91B3FA"/>
<path d="M27.6711 68.1917C27.6849 70.2967 25.9838 72.0204 23.8787 72.0343C22.8589 72.0411 21.8976 71.6503 21.172 70.9339C20.4463 70.2179 20.0427 69.2618 20.0362 68.242C20.0224 66.137 21.7235 64.4133 23.8286 64.3994C25.7437 64.3868 27.3431 65.7936 27.6266 67.6329C27.6547 67.8152 27.6698 68.002 27.6711 68.1917ZM21.7976 70.3001C22.3541 70.8493 23.0911 71.1489 23.873 71.1438C25.4867 71.1331 26.7913 69.8114 26.7806 68.1976C26.7706 66.5832 25.4483 65.2793 23.8344 65.2898C22.2206 65.3005 20.9161 66.6221 20.9267 68.236C20.9278 68.3824 20.9395 68.5268 20.9613 68.6688C21.0563 69.2857 21.3454 69.8537 21.7976 70.3001Z" fill="#BDD0FB"/>
<path d="M33.0883 66.8701C33.0396 66.5543 32.9748 66.239 32.8934 65.9254C32.8679 65.8267 32.8406 65.7284 32.8119 65.6305C32.67 65.148 32.4899 64.6776 32.2746 64.2265C32.2717 64.2204 32.2687 64.2142 32.2658 64.208C32.2574 64.1906 32.249 64.1732 32.2404 64.1558C32.2239 64.122 32.2071 64.0883 32.1903 64.0547C32.1459 63.9662 32.0506 63.9203 31.9577 63.9345C31.9352 63.938 31.9128 63.9451 31.8913 63.9559C31.7815 64.0112 31.7377 64.145 31.7926 64.2548C32.0771 64.82 32.3023 65.4196 32.4623 66.0371C33.2586 69.104 32.3553 72.2191 30.3419 74.3827C29.2222 75.5862 27.7588 76.4952 26.053 76.9377C25.7538 77.0154 25.453 77.0774 25.1517 77.1237C23.124 77.436 21.0678 77.0446 19.2754 75.9907C17.2166 74.7802 15.7523 72.8402 15.1525 70.5285C13.9143 65.7539 16.7897 60.8661 21.5619 59.6279C21.8562 59.5515 22.1532 59.4904 22.4517 59.4445C23.7451 59.2454 25.0678 59.3316 26.3243 59.7013C26.3568 59.7109 26.3897 59.7127 26.421 59.7078C26.5035 59.6951 26.5756 59.6361 26.6007 59.5506C26.6351 59.4325 26.5683 59.3088 26.4499 59.2741C25.1306 58.8859 23.7419 58.7953 22.384 59.0043C22.0707 59.0525 21.759 59.1167 21.4502 59.1968C16.4398 60.4966 13.422 65.6317 14.7214 70.6402C15.3511 73.0672 16.8883 75.1035 19.0497 76.3744C20.9313 77.4809 23.09 77.8917 25.2187 77.564C25.535 77.5152 25.8508 77.4502 26.1647 77.3688C28.5918 76.739 30.6283 75.2019 31.8992 73.0406C33.0058 71.1586 33.4164 68.9992 33.0883 66.8701Z" fill="#BDD0FB"/>
<path d="M37.342 29.6271C37.2779 29.5895 37.1971 29.5965 37.1406 29.6448L35.53 31.0214C34.5852 30.7276 33.5867 30.5824 32.5688 30.6065L31.3979 28.8423C31.3568 28.7805 31.281 28.7515 31.2092 28.7701L28.7493 29.4083C28.6773 29.427 28.6252 29.4892 28.6194 29.5632L28.454 31.6741C27.5527 32.1478 26.7508 32.7602 26.068 33.4763L23.9913 33.0564C23.9185 33.0417 23.8444 33.0748 23.8067 33.1388L22.5186 35.3296C22.4809 35.3936 22.4881 35.4744 22.5363 35.5309L23.9129 37.1415C23.619 38.0863 23.4739 39.0848 23.498 40.1028L21.7338 41.2736C21.6719 41.3147 21.6429 41.3904 21.6615 41.4623L22.2997 43.9223C22.3184 43.9942 22.3806 44.0463 22.4546 44.0521L24.5655 44.2175C25.0393 45.1188 25.6516 45.9208 26.3677 46.6035L25.9478 48.6802C25.9331 48.753 25.9662 48.8271 26.0302 48.8647L28.2209 50.1529C28.2849 50.1905 28.3658 50.1834 28.4223 50.1352L30.033 48.7586C30.9778 49.0525 31.9762 49.1977 32.9942 49.1735L34.165 50.9377C34.2061 50.9996 34.2818 51.0286 34.3538 51.01L36.8137 50.3717C36.8856 50.353 36.9377 50.2908 36.9435 50.2168L37.1089 48.1059C38.0102 47.6321 38.8122 47.0198 39.495 46.3037L41.5716 46.7235C41.6444 46.7383 41.7185 46.7052 41.7562 46.6412L43.0443 44.4504C43.082 44.3864 43.0749 44.3055 43.0266 44.2491L41.6501 42.6385C41.9439 41.6937 42.0891 40.6952 42.0649 39.6772L43.8291 38.5065C43.891 38.4654 43.92 38.3896 43.9014 38.3177L43.2631 35.8578C43.2445 35.7859 43.1823 35.7337 43.1083 35.7279L40.9974 35.5625C40.5236 34.6612 39.9113 33.8593 39.1952 33.1765L39.615 31.0998C39.6298 31.027 39.5967 30.9529 39.5327 30.9153L37.342 29.6271Z" fill="#91B3FA"/>
<path opacity="0.56" d="M35.3816 39.8727C35.3864 40.5674 35.1201 41.2223 34.6321 41.7166C34.1444 42.211 33.4931 42.4858 32.7984 42.4902C31.3648 42.4997 30.1928 41.3426 30.1809 39.9069C30.1718 38.473 31.3306 37.299 32.764 37.2897C33.4587 37.285 34.1135 37.5512 34.6078 38.039C35.0097 38.4357 35.2665 38.9403 35.3509 39.4884C35.3703 39.6144 35.3806 39.7429 35.3816 39.8727ZM32.7938 41.8028C33.3049 41.7994 33.7839 41.5974 34.1429 41.2337C34.5017 40.8701 34.6975 40.3883 34.6941 39.8774C34.6901 39.3665 34.4886 38.8875 34.1248 38.5285C33.7615 38.1696 33.2795 37.974 32.7688 37.9772C31.7141 37.9842 30.8617 38.8478 30.8684 39.9024C30.8692 39.9976 30.8767 40.091 30.8908 40.1825C31.0328 41.104 31.8344 41.8091 32.7938 41.8028Z" fill="#91B3FA"/>
<path d="M39.1518 38.9527C39.1187 38.7376 39.0743 38.5227 39.0188 38.3077C38.9082 37.8809 38.754 37.465 38.5601 37.0704C38.5512 37.0528 38.5424 37.0351 38.5335 37.0174C38.465 36.8809 38.3178 36.81 38.1744 36.8319C38.1396 36.8373 38.1049 36.8482 38.0718 36.8649C37.9022 36.9502 37.8349 37.1568 37.9194 37.3264C38.104 37.693 38.2497 38.0812 38.353 38.4801L38.353 38.4803C38.3588 38.5021 38.3642 38.5242 38.3696 38.546C38.6054 39.4922 38.5965 40.4613 38.3578 41.3807C38.2281 41.8798 38.0304 42.3645 37.7664 42.8228C37.7643 42.8265 37.7622 42.8302 37.76 42.834C37.7532 42.8454 37.7468 42.8567 37.7401 42.868C36.9563 44.2007 35.7005 45.1487 34.2039 45.537C34.0102 45.5874 33.8156 45.6274 33.6205 45.6574C32.3079 45.8595 30.9766 45.6061 29.8161 44.9239C28.4833 44.1401 27.5356 42.8842 27.1474 41.3878C26.76 39.892 26.977 38.3329 27.7604 37C28.5441 35.6673 29.8 34.7193 31.2966 34.331C31.487 34.2815 31.6792 34.242 31.8723 34.2123C32.7099 34.0833 33.566 34.1391 34.3794 34.3785C34.4295 34.3932 34.4802 34.3962 34.5287 34.3885C34.656 34.3688 34.7674 34.2778 34.8062 34.1458C34.8592 33.9635 34.7558 33.7726 34.5732 33.7189C33.6631 33.451 32.705 33.3885 31.7683 33.5325C31.5519 33.5659 31.3369 33.61 31.1239 33.6653C29.4493 34.0998 28.0444 35.1602 27.1676 36.6516C26.291 38.1427 26.0459 39.8853 26.4817 41.5603C26.9161 43.2348 27.9763 44.6396 29.4678 45.5163C30.7659 46.2798 32.2552 46.5632 33.7239 46.3371C33.9419 46.3035 34.1598 46.2587 34.3763 46.2025C37.6183 45.3614 39.6513 42.1941 39.1518 38.9527Z" fill="#BDD0FB"/>
<path d="M122.869 17.6781C128.993 42.5588 150.009 128.406 156.028 159.148C156.665 162.405 155.029 165.499 152.285 166.225C138.716 169.811 88.839 182.368 66.2067 186.279C61.4927 187.094 56.7959 183.505 55.4776 178.068C49.1401 151.933 31.5974 78.3593 26.4706 44.0042C25.8564 39.8879 27.8523 36.0539 31.2195 34.8754C45.7343 29.7953 95.1698 14.2547 114.839 11.3947C118.386 10.8789 121.868 13.6096 122.869 17.6781Z" fill="url(#paint0_linear_57141_1849)"/>
<path d="M118.479 26.7147C123.731 46.728 141.077 113.336 145.895 138.323C146.599 141.976 144.811 145.456 141.761 146.362C129.201 150.089 86.1144 161.754 67.0135 164.188C63.5742 164.626 60.2173 162.03 59.1519 158.123C53.597 137.75 36.8867 75.8532 32.1008 51.1507C31.3374 47.21 33.2144 43.4321 36.4715 42.3353C49.9461 37.7978 95.5582 25.4121 111.542 21.4575C114.516 20.7215 117.569 23.2499 118.479 26.7147Z" fill="url(#paint1_linear_57141_1849)"/>
<path d="M82.5738 24.5162C82.7454 25.2833 82.3761 26.0304 81.7302 26.2169C78.5418 27.1385 69.5608 29.7368 65.5528 30.9238C64.7626 31.1579 63.944 30.455 63.8895 29.4975L63.8802 29.3342C63.8431 28.681 64.1836 28.1068 64.7166 27.9261C67.4017 27.0155 75.5197 24.3402 81.0709 23.339C81.7377 23.2188 82.4007 23.7429 82.5738 24.5162Z" fill="url(#paint2_linear_57141_1849)"/>
<path d="M118.479 26.7147C123.731 46.728 141.077 113.336 145.895 138.323C146.599 141.976 144.811 145.456 141.761 146.362C129.201 150.089 86.1144 161.754 67.0136 164.188C63.5742 164.626 60.2173 162.03 59.152 158.123C53.597 137.75 36.8867 75.8532 32.1008 51.1507C31.3375 47.21 33.2144 43.4321 36.4715 42.3353C49.9462 37.7978 95.9135 25.623 111.542 21.4575C114.503 20.6682 117.569 23.2499 118.479 26.7147Z" fill="#91B3FA"/>
<mask id="mask0_57141_1849" style="mask-type:luminance" maskUnits="userSpaceOnUse" x="31" y="21" width="116" height="144">
<path d="M118.479 26.7147C123.731 46.728 141.077 113.336 145.895 138.323C146.599 141.976 144.811 145.456 141.761 146.362C129.201 150.089 86.1144 161.754 67.0136 164.188C63.5742 164.626 60.2173 162.03 59.152 158.123C53.597 137.75 36.8867 75.8532 32.1008 51.1507C31.3375 47.21 33.2144 43.4321 36.4715 42.3353C49.9462 37.7978 95.9135 25.623 111.542 21.4575C114.503 20.6682 117.569 23.2499 118.479 26.7147Z" fill="white"/>
</mask>
<g mask="url(#mask0_57141_1849)">
<path d="M127.5 5.35318L13.8881 30.7785L19.8244 57.3047L133.436 31.8793L127.5 5.35318Z" fill="url(#paint3_linear_57141_1849)"/>
</g>
<path d="M42.9767 38.6865L43.3373 62.26L59.6021 58.6531L56.7872 35.2493L42.9767 38.6865Z" fill="url(#paint4_linear_57141_1849)"/>
<path d="M34.2697 40.8535L19.4745 67.5519L43.3373 62.26L42.9767 38.6865L34.2697 40.8535Z" fill="url(#paint5_linear_57141_1849)"/>
<path d="M56.7872 35.2493L59.6021 58.6531L72.092 55.8832L68.429 32.3519L56.7872 35.2493Z" fill="url(#paint6_linear_57141_1849)"/>
<path d="M82.951 28.7376L89.7777 51.9612L102.274 49.19L94.5251 25.8571L82.951 28.7376Z" fill="url(#paint7_linear_57141_1849)"/>
<path d="M108.104 22.4774L94.5251 25.8571L102.274 49.19L118.56 45.5782L108.104 22.4774Z" fill="url(#paint8_linear_57141_1849)"/>
<path d="M68.429 32.3519L72.092 55.8832L89.7778 51.9612L82.9511 28.7376L68.429 32.3519Z" fill="url(#paint9_linear_57141_1849)"/>
<path d="M141.181 40.5617L115.971 20.5196L108.105 22.4774L118.56 45.5782L141.181 40.5617Z" fill="url(#paint10_linear_57141_1849)"/>
<path d="M19.4743 67.5519C19.4743 67.5519 20.1589 76.0704 30.8544 74.728C41.5499 73.3855 43.4423 62.1881 43.4423 62.1881L19.4743 67.5519Z" fill="url(#paint11_linear_57141_1849)"/>
<path d="M59.4989 58.5948C59.4989 58.5948 61.0496 67.7078 53.1938 69.7286C44.3994 71.9909 43.4426 62.188 43.4426 62.188L59.4989 58.5948Z" fill="url(#paint12_linear_57141_1849)"/>
<path d="M59.4988 58.5948L72.0645 55.7827C72.0645 55.7827 74.1366 65.0418 67.8537 66.4479C61.5322 67.8626 59.4988 58.5948 59.4988 58.5948Z" fill="url(#paint13_linear_57141_1849)"/>
<path d="M141.181 40.5617C141.181 40.5617 145.546 48.0101 135.298 51.3545C125.051 54.6989 118.566 45.3762 118.566 45.3762L141.181 40.5617Z" fill="url(#paint14_linear_57141_1849)"/>
<path d="M102.51 48.9694C102.51 48.9694 104.991 57.8741 112.959 56.3537C121.879 54.6518 118.566 45.3761 118.566 45.3761L102.51 48.9694Z" fill="url(#paint15_linear_57141_1849)"/>
<path d="M102.51 48.9694L89.9438 51.7815C89.9438 51.7815 92.0159 61.0406 98.2988 59.6345C104.62 58.2198 102.51 48.9694 102.51 48.9694Z" fill="url(#paint16_linear_57141_1849)"/>
<path d="M72.0647 55.7827L89.9825 51.7729C89.9825 51.7729 90.8352 61.0421 83.2121 63.0108C75.589 64.9796 72.0647 55.7827 72.0647 55.7827Z" fill="url(#paint17_linear_57141_1849)"/>
<path opacity="0.48" d="M42.3301 77.1866L48.8513 106.326C49.3996 108.777 51.7313 110.374 54.1464 109.953L85.0049 103.302C87.5235 102.863 89.185 100.402 88.6994 97.8292L83.1014 68.1638C82.5815 65.4088 79.8369 63.704 77.221 64.5112L45.4394 71.6882C43.1484 72.3951 41.7938 74.7905 42.3301 77.1866Z" fill="white"/>
<path opacity="0.48" d="M101.508 100.248L125.843 94.8024C128.677 94.1682 130.514 91.3881 130.029 88.4656L125.569 61.5456C125.044 58.3772 122.014 56.2877 118.941 56.9753L92.7449 62.8379C89.7625 63.5053 87.914 66.533 88.6374 69.5656L94.9596 96.069C95.6685 99.0408 98.5854 100.902 101.508 100.248Z" fill="white"/>
<path opacity="0.48" d="M54.125 127.893L59.5003 151.912C60.1839 154.967 63.2414 156.896 66.3599 156.237C73.8719 154.648 86.8393 151.676 94.2257 149.971C97.3026 149.26 99.2272 146.234 98.5246 143.214C97.0591 136.914 94.6918 126.629 93.3892 120.404C92.7557 117.377 89.7861 115.414 86.6861 115.972L58.8032 120.991C55.5419 121.578 53.4143 124.717 54.125 127.893Z" fill="white"/>
<path opacity="0.48" d="M98.16 118.132L103.598 142.43C104.121 144.77 106.344 146.295 108.647 145.894L138.323 140.729C140.724 140.311 142.307 137.962 141.843 135.506L136.497 107.183C136.001 104.553 133.384 102.924 130.89 103.694L101.122 112.884C98.9385 113.558 97.6481 115.844 98.16 118.132Z" fill="white"/>
<path d="M137.142 127.44L133.698 118.456L133.696 118.457C132.424 115.022 129.225 113.426 125.949 114.284C123.982 114.799 122.409 116.018 121.689 117.907L115.985 119.374C114.431 118.082 112.461 117.725 110.494 118.241C107.217 119.099 105.19 122.31 105.802 125.588L105.795 125.572L107.184 135.192C107.346 136.317 108.226 137.198 109.35 137.366L110.518 137.538C111.61 137.702 112.696 137.194 113.2 136.211L116.76 129.342L125.866 126.956L132.336 131.197C133.258 131.806 134.459 131.738 135.331 131.06L136.292 130.368C137.189 129.671 137.552 128.5 137.142 127.44Z" fill="url(#paint18_linear_57141_1849)"/>
<path d="M113.074 128.507C115.332 128.002 116.753 125.762 116.248 123.504C115.742 121.246 113.503 119.825 111.245 120.331C108.987 120.836 107.566 123.076 108.071 125.334C108.577 127.591 110.817 129.012 113.074 128.507Z" fill="url(#paint19_linear_57141_1849)"/>
<path d="M128.683 124.418C130.941 123.913 132.361 121.673 131.856 119.415C131.351 117.157 129.111 115.736 126.853 116.242C124.595 116.747 123.175 118.987 123.68 121.245C124.185 123.502 126.425 124.923 128.683 124.418Z" fill="url(#paint20_linear_57141_1849)"/>
<path d="M128.167 117.975C128.303 118.493 127.993 119.023 127.475 119.158C126.957 119.294 126.427 118.984 126.291 118.466C126.155 117.948 126.465 117.418 126.983 117.283C127.501 117.147 128.031 117.457 128.167 117.975Z" fill="url(#paint21_linear_57141_1849)"/>
<path d="M129.224 122.01C129.359 122.528 129.05 123.058 128.532 123.193C128.014 123.329 127.484 123.019 127.348 122.501C127.212 121.983 127.522 121.453 128.04 121.317C128.558 121.182 129.088 121.492 129.224 122.01Z" fill="url(#paint22_linear_57141_1849)"/>
<path d="M130.02 120.647C129.502 120.783 128.973 120.473 128.837 119.955C128.701 119.437 129.011 118.907 129.529 118.771C130.047 118.636 130.577 118.946 130.713 119.464C130.848 119.982 130.538 120.512 130.02 120.647Z" fill="url(#paint23_linear_57141_1849)"/>
<path d="M125.986 121.704C125.468 121.84 124.938 121.53 124.802 121.012C124.666 120.494 124.976 119.964 125.494 119.828C126.012 119.693 126.542 120.003 126.678 120.521C126.814 121.039 126.504 121.569 125.986 121.704Z" fill="url(#paint24_linear_57141_1849)"/>
<path d="M113.93 123.498L112.583 123.85L111.919 122.067C111.852 121.888 111.653 121.757 111.468 121.806L111.02 121.923C110.921 121.949 110.834 122.004 110.785 122.094C110.736 122.184 110.736 122.328 110.768 122.425L111.338 124.177L109.66 124.616C109.461 124.669 109.212 124.815 109.264 125.014L109.354 125.355C109.406 125.554 109.721 125.663 109.92 125.61L111.662 125.154L112.245 126.942C112.306 127.13 112.511 127.268 112.702 127.219L113.344 127.05C113.446 127.024 113.521 126.915 113.57 126.821C113.618 126.727 113.622 126.606 113.585 126.508L112.952 124.816L114.19 124.492C114.389 124.44 114.376 124.252 114.324 124.053L114.234 123.712C114.182 123.513 114.129 123.446 113.93 123.498Z" fill="url(#paint25_linear_57141_1849)"/>
<path d="M118.673 121.193C118.702 121.303 118.636 121.415 118.526 121.444L117.334 121.756C117.224 121.785 117.112 121.719 117.083 121.61C117.054 121.5 117.12 121.388 117.23 121.359L118.422 121.046C118.532 121.017 118.644 121.083 118.673 121.193Z" fill="url(#paint26_linear_57141_1849)"/>
<path d="M121.456 120.464C121.485 120.574 121.419 120.686 121.31 120.715L120.117 121.027C120.007 121.056 119.895 120.99 119.866 120.881C119.837 120.771 119.903 120.658 120.013 120.63L121.205 120.317C121.315 120.288 121.427 120.354 121.456 120.464Z" fill="url(#paint27_linear_57141_1849)"/>
<path d="M85.4656 94.8783L51.062 102.578C50.867 102.621 50.6735 102.498 50.6299 102.303L45.8708 81.0378C45.8151 80.7887 45.9718 80.5416 46.2209 80.4859L80.3503 72.848C80.6427 72.7826 80.9327 72.9666 80.9982 73.2589L85.7397 94.4461C85.7834 94.6412 85.6606 94.8347 85.4656 94.8783Z" fill="url(#paint28_linear_57141_1849)"/>
<path d="M72.8257 77.3197L47.3988 83.01L51.3601 100.711L76.787 95.0207L72.8257 77.3197Z" fill="url(#paint29_linear_57141_1849)"/>
<path d="M85.3763 94.8983L78.3533 96.4699L73.4143 74.4003L79.3365 73.075C80.1888 72.8842 81.0344 73.4206 81.2252 74.2729L85.7198 94.3569C85.7745 94.6012 85.6207 94.8436 85.3763 94.8983Z" fill="url(#paint30_linear_57141_1849)"/>
<path d="M76.037 92.3944L75.2374 92.5733C75.1524 92.5923 75.0673 92.5383 75.0483 92.4533L72.5204 81.1578C72.5014 81.0728 72.5554 80.9876 72.6404 80.9686L73.44 80.7897C73.525 80.7707 73.6101 80.8247 73.6291 80.9096L76.157 92.2052C76.176 92.2902 76.122 92.3753 76.037 92.3944Z" fill="url(#paint31_linear_57141_1849)"/>
<path d="M80.5952 78.4898L75.6094 79.6056C75.3533 79.6629 75.0993 79.5017 75.042 79.2456L74.5051 76.8469C74.4478 76.5908 74.609 76.3367 74.865 76.2793L79.8509 75.1636C80.1069 75.1063 80.361 75.2674 80.4183 75.5235L80.9551 77.9223C81.0125 78.1784 80.8514 78.4325 80.5952 78.4898Z" fill="url(#paint32_linear_57141_1849)"/>
<path d="M81.5829 94.7566C82.7999 94.4842 83.5657 93.2769 83.2933 92.0599C83.021 90.843 81.8137 90.0772 80.5967 90.3496C79.3797 90.6219 78.614 91.8292 78.8863 93.0462C79.1587 94.2631 80.366 95.0289 81.5829 94.7566Z" fill="url(#paint33_linear_57141_1849)"/>
<path d="M81.5157 94.3001C82.4847 94.0833 83.0944 93.122 82.8776 92.153C82.6607 91.1839 81.6994 90.5742 80.7304 90.7911C79.7614 91.0079 79.1516 91.9692 79.3685 92.9383C79.5853 93.9073 80.5467 94.517 81.5157 94.3001Z" fill="url(#paint34_linear_57141_1849)"/>
<path d="M77.6829 82.3574C78.0427 82.2769 78.269 81.92 78.1885 81.5603C78.108 81.2006 77.7511 80.9743 77.3914 81.0548C77.0317 81.1353 76.8054 81.4921 76.8859 81.8518C76.9664 82.2116 77.3232 82.4379 77.6829 82.3574Z" fill="url(#paint35_linear_57141_1849)"/>
<path d="M79.7116 81.9034C80.0713 81.8229 80.2977 81.4661 80.2172 81.1063C80.1367 80.7466 79.7798 80.5203 79.4201 80.6008C79.0604 80.6813 78.8341 81.0382 78.9146 81.3979C78.9951 81.7576 79.3519 81.9839 79.7116 81.9034Z" fill="url(#paint36_linear_57141_1849)"/>
<path d="M78.1873 84.612C78.547 84.5315 78.7734 84.1746 78.6929 83.8148C78.6124 83.4551 78.2555 83.2287 77.8958 83.3092C77.536 83.3897 77.3096 83.7466 77.3902 84.1064C77.4707 84.4661 77.8276 84.6925 78.1873 84.612Z" fill="url(#paint37_linear_57141_1849)"/>
<path d="M80.2162 84.1579C80.576 84.0774 80.8023 83.7205 80.7218 83.3608C80.6413 83.001 80.2844 82.7747 79.9247 82.8552C79.5649 82.9357 79.3386 83.2926 79.4191 83.6523C79.4996 84.0121 79.8565 84.2384 80.2162 84.1579Z" fill="url(#paint38_linear_57141_1849)"/>
<path d="M78.7619 87.0059C79.1216 86.9254 79.348 86.5685 79.2675 86.2088C79.187 85.8491 78.8301 85.6227 78.4704 85.7032C78.1107 85.7837 77.8844 86.1406 77.9649 86.5003C78.0454 86.86 78.4022 87.0864 78.7619 87.0059Z" fill="url(#paint39_linear_57141_1849)"/>
<path d="M80.7907 86.5518C81.1504 86.4713 81.3768 86.1145 81.2963 85.7548C81.2158 85.395 80.8589 85.1687 80.4992 85.2492C80.1395 85.3297 79.9132 85.6866 79.9937 86.0463C80.0742 86.406 80.431 86.6323 80.7907 86.5518Z" fill="url(#paint40_linear_57141_1849)"/>
<path d="M79.392 89.3099C79.7518 89.2294 79.9781 88.8725 79.8976 88.5128C79.8171 88.153 79.4602 87.9266 79.1005 88.0072C78.7407 88.0877 78.5144 88.4446 78.5949 88.8043C78.6754 89.164 79.0323 89.3904 79.392 89.3099Z" fill="url(#paint41_linear_57141_1849)"/>
<path d="M81.4208 88.8559C81.7806 88.7754 82.0069 88.4185 81.9264 88.0587C81.8459 87.699 81.489 87.4726 81.1293 87.5531C80.7695 87.6336 80.5432 87.9905 80.6237 88.3503C80.7042 88.71 81.0611 88.9364 81.4208 88.8559Z" fill="url(#paint42_linear_57141_1849)"/>
<path d="M93.8665 140.933C93.9344 141.236 93.7414 141.54 93.4376 141.608L63.57 148.292C63.2663 148.36 62.9621 148.167 62.8942 147.864L58.8045 130.755C58.7366 130.452 58.9615 129.779 59.6268 129.677L88.6477 122.39C89.0267 122.294 89.428 122.359 89.7581 122.567C90.0883 122.776 90.3183 123.111 90.3945 123.493L93.8665 140.933Z" fill="url(#paint43_linear_57141_1849)"/>
<path d="M93.2027 140.525C93.267 140.813 93.0845 141.1 92.7971 141.165L64.1653 147.572C63.8779 147.637 63.5901 147.454 63.5258 147.167L59.8042 131.637C59.622 130.694 60.3687 130.173 60.8714 130.081C60.8714 130.081 83.549 124.363 88.6793 123.07C88.9455 123.003 89.2274 123.048 89.4595 123.195C89.6914 123.341 89.8537 123.577 89.9069 123.846L93.2027 140.525Z" fill="url(#paint44_linear_57141_1849)"/>
<path opacity="0.7" d="M62.1703 139.658C62.1488 139.663 62.1273 139.649 62.1222 139.628L61.8208 138.368C61.8157 138.347 61.829 138.325 61.8508 138.32L61.8514 138.319C61.8729 138.315 61.8944 138.328 61.8995 138.349L62.2009 139.609C62.206 139.631 62.1927 139.653 62.1709 139.658C62.1709 139.658 62.1706 139.658 62.1703 139.658Z" fill="white"/>
<path opacity="0.7" d="M61.4319 136.571C61.4104 136.576 61.3889 136.563 61.3838 136.541L60.2296 131.718C60.1589 131.395 60.2006 131.115 60.3533 130.885C60.6313 130.467 61.1887 130.36 61.2124 130.356L70.0929 128.117C70.1157 128.112 70.1366 128.124 70.142 128.146C70.1475 128.168 70.1344 128.19 70.1127 128.195L61.23 130.435C61.2048 130.439 60.6798 130.54 60.4207 130.93C60.2806 131.141 60.2428 131.4 60.3085 131.699L61.4625 136.523C61.4677 136.544 61.4543 136.566 61.4326 136.571L61.4319 136.571Z" fill="white"/>
<path opacity="0.19" d="M64.5938 146.02C64.3355 144.725 61.7722 133.324 61.4779 132.355C61.1835 131.387 62.6762 130.859 65.0065 130.221C67.3367 129.583 87.1092 124.697 87.6115 124.541C88.7407 124.191 89.3634 125.856 90.0835 129.614C90.6245 132.437 91.5148 137.087 91.9241 139.226C92.0461 139.863 91.6415 140.48 91.0091 140.623C86.2304 141.707 67.9153 145.861 66.7034 146.17C65.3088 146.526 64.6962 146.533 64.5938 146.02Z" fill="white"/>
<path d="M96.549 142.408L61.7021 150.206C61.6015 150.229 61.5007 150.165 61.4782 150.064L61.2226 148.922C61.2001 148.821 61.264 148.721 61.3646 148.698L96.2115 140.9C96.312 140.877 96.4128 140.941 96.4353 141.042L96.691 142.184C96.7135 142.285 96.6496 142.385 96.549 142.408Z" fill="url(#paint45_linear_57141_1849)"/>
<path d="M99.0648 79.9637L103.197 78.3743C103.677 78.1898 104.22 78.3863 104.47 78.8353L108.643 86.3203C108.903 86.7869 108.764 87.3749 108.323 87.6761L105.236 90.7801C105.121 90.8587 104.996 90.9215 104.864 90.9669L101.653 91.2802C100.923 91.5312 100.12 91.2121 99.7619 90.5291L96.3074 83.9425C95.9801 83.3185 96.1114 82.5525 96.6279 82.0731L98.5631 80.2767C98.7089 80.1413 98.8792 80.0351 99.0648 79.9637Z" fill="url(#paint46_linear_57141_1849)"/>
<path d="M108.493 83.6917L106.172 84.909C105.708 85.1527 105.136 85.0815 104.753 84.7232C103.758 83.7934 103.095 82.7227 102.967 81.424C102.919 80.9322 103.192 80.4636 103.63 80.234L106.022 78.9794L108.493 83.6917Z" fill="url(#paint47_linear_57141_1849)"/>
<path d="M113.824 82.3983L109.245 84.7998C108.744 85.0624 108.124 84.958 107.749 84.5355C106.291 82.8958 105.248 81.1791 104.922 79.3297C104.828 78.7975 105.092 78.2652 105.571 78.0142L110.24 75.5654L113.824 82.3983Z" fill="url(#paint48_linear_57141_1849)"/>
<path d="M115.949 69.2665L109.725 74.4915C109.431 74.7385 109.262 75.1082 109.281 75.4918C109.427 78.3964 111.138 80.9539 113.51 83.3652C113.792 83.652 114.193 83.7894 114.591 83.7285L122.869 82.4609L124.283 81.7195L117.363 68.525L115.949 69.2665Z" fill="url(#paint49_linear_57141_1849)"/>
<path d="M122.708 74.1336C124.619 77.7772 125.271 81.2011 124.165 81.7812C123.059 82.3613 120.613 79.8779 118.702 76.2344C116.791 72.5908 116.139 69.1669 117.245 68.5868C118.351 68.0067 120.797 70.4901 122.708 74.1336Z" fill="url(#paint50_linear_57141_1849)"/>
<path d="M96.9312 70.8391L100.507 69.4639C100.922 69.3042 101.392 69.4742 101.608 69.8627L105.219 76.3394C105.444 76.7431 105.324 77.252 104.942 77.5126L101.747 79.6937C101.647 79.7617 101.539 79.8161 101.425 79.8553L99.1704 80.6311C98.5394 80.8482 97.8444 80.5721 97.5345 79.9811L94.5454 74.282C94.2622 73.742 94.3758 73.0792 94.8226 72.6644L96.4971 71.11C96.6232 70.9929 96.7705 70.9009 96.9312 70.8391Z" fill="url(#paint51_linear_57141_1849)"/>
<path d="M98.2914 71.9367L101.59 78.2252C101.741 78.5142 102.114 78.6019 102.378 78.4111L104.473 76.9001C104.689 76.7439 104.758 76.4524 104.634 76.2161L101.59 70.4128C101.459 70.1636 101.158 70.0579 100.901 70.1705L98.5517 71.1962C98.2666 71.3207 98.1469 71.6611 98.2914 71.9367Z" fill="url(#paint52_linear_57141_1849)"/>
<path d="M121.827 74.7458C123.226 77.4133 123.886 79.8248 123.3 80.1319C122.714 80.439 121.106 78.5255 119.707 75.8579C118.307 73.1903 117.648 70.7789 118.234 70.4717C118.819 70.1646 120.428 72.0782 121.827 74.7458Z" fill="url(#paint53_linear_57141_1849)"/>
<path d="M162.637 138.743C162.094 138.736 161.65 138.299 161.64 137.752C161.627 137.11 161.459 122.026 171.885 120.54C174.102 120.223 176.067 120.773 177.725 122.172C182.811 126.467 183.163 137.471 183.175 137.937C183.191 138.495 182.751 138.959 182.193 138.974C181.633 138.991 181.171 138.55 181.155 137.992C181.152 137.887 180.815 127.424 176.419 123.715C175.204 122.691 173.815 122.307 172.17 122.541C163.495 123.778 163.658 137.574 163.66 137.713C163.671 138.271 163.227 138.732 162.669 138.743C162.659 138.743 162.648 138.743 162.637 138.743Z" fill="url(#paint54_linear_57141_1849)"/>
<path d="M144.06 176.317L151.957 134.218L179.743 134.089L188.157 179.628L146.432 179.132C144.948 179.114 143.826 177.782 144.06 176.317Z" fill="url(#paint55_linear_57141_1849)"/>
<path d="M185.133 134.613L179.743 134.089L188.157 179.628L193.513 179.692C194.599 179.705 195.423 178.716 195.214 177.65L185.133 134.613Z" fill="#7D97F4"/>
<path d="M156.669 138.557C156.126 138.551 155.682 138.113 155.671 137.566C155.659 136.925 155.491 121.841 165.917 120.354C168.134 120.037 170.099 120.587 171.757 121.987C176.843 126.281 177.195 137.285 177.207 137.752C177.223 138.309 176.783 138.774 176.225 138.789C175.668 138.811 175.203 138.364 175.187 137.806C175.184 137.701 174.847 127.238 170.451 123.53C169.236 122.505 167.847 122.121 166.202 122.355C157.526 123.592 157.689 137.388 157.692 137.527C157.703 138.086 157.259 138.546 156.701 138.557C156.69 138.557 156.68 138.557 156.669 138.557Z" fill="url(#paint56_linear_57141_1849)"/>
<defs>
<linearGradient id="paint0_linear_57141_1849" x1="140.282" y1="87.7646" x2="39.6615" y2="110.283" gradientUnits="userSpaceOnUse">
<stop stop-color="#09005D"/>
<stop offset="1" stop-color="#1A0F91"/>
</linearGradient>
<linearGradient id="paint1_linear_57141_1849" x1="83.6219" y1="67.3604" x2="110.756" y2="205.532" gradientUnits="userSpaceOnUse">
<stop stop-color="#FDF53F"/>
<stop offset="1" stop-color="#D93C65"/>
</linearGradient>
<linearGradient id="paint2_linear_57141_1849" x1="63.8075" y1="29.2386" x2="82.6852" y2="25.0139" gradientUnits="userSpaceOnUse">
<stop stop-color="#4F52FF"/>
<stop offset="1" stop-color="#4042E2"/>
</linearGradient>
<linearGradient id="paint3_linear_57141_1849" x1="76.0279" y1="49.3673" x2="71.2429" y2="12.882" gradientUnits="userSpaceOnUse">
<stop stop-color="#A737D5"/>
<stop offset="1" stop-color="#EF497A"/>
</linearGradient>
<linearGradient id="paint4_linear_57141_1849" x1="52.9365" y1="65.7457" x2="45.6863" y2="22.8872" gradientUnits="userSpaceOnUse">
<stop stop-color="#FF928E"/>
<stop offset="1" stop-color="#FE7062"/>
</linearGradient>
<linearGradient id="paint5_linear_57141_1849" x1="33.0122" y1="62.062" x2="19.2648" y2="-6.75228" gradientUnits="userSpaceOnUse">
<stop stop-color="#4F52FF"/>
<stop offset="1" stop-color="#4042E2"/>
</linearGradient>
<linearGradient id="paint6_linear_57141_1849" x1="66.0069" y1="55.4705" x2="52.2595" y2="-13.344" gradientUnits="userSpaceOnUse">
<stop stop-color="#4F52FF"/>
<stop offset="1" stop-color="#4042E2"/>
</linearGradient>
<linearGradient id="paint7_linear_57141_1849" x1="94.7624" y1="49.7259" x2="81.015" y2="-19.0885" gradientUnits="userSpaceOnUse">
<stop stop-color="#4F52FF"/>
<stop offset="1" stop-color="#4042E2"/>
</linearGradient>
<linearGradient id="paint8_linear_57141_1849" x1="109.161" y1="51.1962" x2="101.902" y2="8.28251" gradientUnits="userSpaceOnUse">
<stop stop-color="#FF928E"/>
<stop offset="1" stop-color="#FE7062"/>
</linearGradient>
<linearGradient id="paint9_linear_57141_1849" x1="81.4545" y1="56.9938" x2="74.2009" y2="14.1153" gradientUnits="userSpaceOnUse">
<stop stop-color="#FF928E"/>
<stop offset="1" stop-color="#FE7062"/>
</linearGradient>
<linearGradient id="paint10_linear_57141_1849" x1="126.994" y1="43.2869" x2="113.246" y2="-25.5275" gradientUnits="userSpaceOnUse">
<stop stop-color="#4F52FF"/>
<stop offset="1" stop-color="#4042E2"/>
</linearGradient>
<linearGradient id="paint11_linear_57141_1849" x1="34.0822" y1="77.7728" x2="31.1746" y2="63.5495" gradientUnits="userSpaceOnUse">
<stop stop-color="#4F52FF"/>
<stop offset="1" stop-color="#4042E2"/>
</linearGradient>
<linearGradient id="paint12_linear_57141_1849" x1="51.4092" y1="-3.00093" x2="51.6098" y2="101.328" gradientUnits="userSpaceOnUse">
<stop stop-color="#FF928E"/>
<stop offset="1" stop-color="#FE7062"/>
</linearGradient>
<linearGradient id="paint13_linear_57141_1849" x1="69.7163" y1="69.9959" x2="65.7026" y2="56.9841" gradientUnits="userSpaceOnUse">
<stop stop-color="#4F52FF"/>
<stop offset="1" stop-color="#4042E2"/>
</linearGradient>
<linearGradient id="paint14_linear_57141_1849" x1="134.018" y1="57.0237" x2="128.493" y2="37.8772" gradientUnits="userSpaceOnUse">
<stop stop-color="#4F52FF"/>
<stop offset="1" stop-color="#4042E2"/>
</linearGradient>
<linearGradient id="paint15_linear_57141_1849" x1="114.44" y1="-20.9371" x2="108.077" y2="102.958" gradientUnits="userSpaceOnUse">
<stop stop-color="#FF928E"/>
<stop offset="1" stop-color="#FE7062"/>
</linearGradient>
<linearGradient id="paint16_linear_57141_1849" x1="98.8556" y1="62.1226" x2="96.2434" y2="50.4499" gradientUnits="userSpaceOnUse">
<stop stop-color="#4F52FF"/>
<stop offset="1" stop-color="#4042E2"/>
</linearGradient>
<linearGradient id="paint17_linear_57141_1849" x1="83.303" y1="10.673" x2="78.7133" y2="99.2396" gradientUnits="userSpaceOnUse">
<stop stop-color="#FF928E"/>
<stop offset="1" stop-color="#FE7062"/>
</linearGradient>
<linearGradient id="paint18_linear_57141_1849" x1="124.354" y1="107.453" x2="119.677" y2="138.247" gradientUnits="userSpaceOnUse">
<stop stop-color="#09005D"/>
<stop offset="1" stop-color="#1A0F91"/>
</linearGradient>
<linearGradient id="paint19_linear_57141_1849" x1="109.836" y1="107.935" x2="115.183" y2="145.869" gradientUnits="userSpaceOnUse">
<stop stop-color="#E1473D"/>
<stop offset="1" stop-color="#E9605A"/>
</linearGradient>
<linearGradient id="paint20_linear_57141_1849" x1="133.011" y1="142.071" x2="115.536" y2="69.6062" gradientUnits="userSpaceOnUse">
<stop stop-color="#FF928E"/>
<stop offset="1" stop-color="#FE7062"/>
</linearGradient>
<linearGradient id="paint21_linear_57141_1849" x1="126.283" y1="118.432" x2="128.175" y2="118.009" gradientUnits="userSpaceOnUse">
<stop stop-color="#E1473D"/>
<stop offset="1" stop-color="#E9605A"/>
</linearGradient>
<linearGradient id="paint22_linear_57141_1849" x1="127.34" y1="122.467" x2="129.232" y2="122.044" gradientUnits="userSpaceOnUse">
<stop stop-color="#E1473D"/>
<stop offset="1" stop-color="#E9605A"/>
</linearGradient>
<linearGradient id="paint23_linear_57141_1849" x1="128.829" y1="119.921" x2="130.721" y2="119.498" gradientUnits="userSpaceOnUse">
<stop stop-color="#E1473D"/>
<stop offset="1" stop-color="#E9605A"/>
</linearGradient>
<linearGradient id="paint24_linear_57141_1849" x1="124.794" y1="120.978" x2="126.686" y2="120.555" gradientUnits="userSpaceOnUse">
<stop stop-color="#E1473D"/>
<stop offset="1" stop-color="#E9605A"/>
</linearGradient>
<linearGradient id="paint25_linear_57141_1849" x1="112.829" y1="120.887" x2="109.909" y2="131.562" gradientUnits="userSpaceOnUse">
<stop stop-color="#09005D"/>
<stop offset="1" stop-color="#1A0F91"/>
</linearGradient>
<linearGradient id="paint26_linear_57141_1849" x1="117.076" y1="121.581" x2="118.68" y2="121.222" gradientUnits="userSpaceOnUse">
<stop stop-color="#FF928E"/>
<stop offset="1" stop-color="#FE7062"/>
</linearGradient>
<linearGradient id="paint27_linear_57141_1849" x1="119.859" y1="120.852" x2="121.463" y2="120.493" gradientUnits="userSpaceOnUse">
<stop stop-color="#FF928E"/>
<stop offset="1" stop-color="#FE7062"/>
</linearGradient>
<linearGradient id="paint28_linear_57141_1849" x1="56.1436" y1="95.2113" x2="112.24" y2="51.6323" gradientUnits="userSpaceOnUse">
<stop stop-color="#09005D"/>
<stop offset="1" stop-color="#1A0F91"/>
</linearGradient>
<linearGradient id="paint29_linear_57141_1849" x1="24.5144" y1="61.2035" x2="71.264" y2="95.8028" gradientUnits="userSpaceOnUse">
<stop stop-color="#FF928E"/>
<stop offset="1" stop-color="#FE7062"/>
</linearGradient>
<linearGradient id="paint30_linear_57141_1849" x1="59.0115" y1="60.95" x2="91.4481" y2="98.8532" gradientUnits="userSpaceOnUse">
<stop stop-color="#09005D"/>
<stop offset="1" stop-color="#1A0F91"/>
</linearGradient>
<linearGradient id="paint31_linear_57141_1849" x1="81.0749" y1="85.5181" x2="89.3357" y2="84.0914" gradientUnits="userSpaceOnUse">
<stop stop-color="#FF928E"/>
<stop offset="1" stop-color="#FE7062"/>
</linearGradient>
<linearGradient id="paint32_linear_57141_1849" x1="84.601" y1="82.1263" x2="58.1788" y2="63.8916" gradientUnits="userSpaceOnUse">
<stop stop-color="#E1473D"/>
<stop offset="1" stop-color="#E9605A"/>
</linearGradient>
<linearGradient id="paint33_linear_57141_1849" x1="98.2698" y1="105.29" x2="74.6035" y2="87.7443" gradientUnits="userSpaceOnUse">
<stop stop-color="#E1473D"/>
<stop offset="1" stop-color="#E9605A"/>
</linearGradient>
<linearGradient id="paint34_linear_57141_1849" x1="79.3685" y1="92.9383" x2="82.8776" y2="92.153" gradientUnits="userSpaceOnUse">
<stop stop-color="#FF928E"/>
<stop offset="1" stop-color="#FE7062"/>
</linearGradient>
<linearGradient id="paint35_linear_57141_1849" x1="71.9182" y1="73.6224" x2="87.2609" y2="95.6951" gradientUnits="userSpaceOnUse">
<stop stop-color="#FF928E"/>
<stop offset="1" stop-color="#FE7062"/>
</linearGradient>
<linearGradient id="paint36_linear_57141_1849" x1="73.4988" y1="72.5237" x2="88.8414" y2="94.5964" gradientUnits="userSpaceOnUse">
<stop stop-color="#FF928E"/>
<stop offset="1" stop-color="#FE7062"/>
</linearGradient>
<linearGradient id="paint37_linear_57141_1849" x1="71.2017" y1="74.1204" x2="86.5444" y2="96.1931" gradientUnits="userSpaceOnUse">
<stop stop-color="#FF928E"/>
<stop offset="1" stop-color="#FE7062"/>
</linearGradient>
<linearGradient id="paint38_linear_57141_1849" x1="72.7824" y1="73.0217" x2="88.1251" y2="95.0944" gradientUnits="userSpaceOnUse">
<stop stop-color="#FF928E"/>
<stop offset="1" stop-color="#FE7062"/>
</linearGradient>
<linearGradient id="paint39_linear_57141_1849" x1="70.4671" y1="74.6309" x2="85.8099" y2="96.7037" gradientUnits="userSpaceOnUse">
<stop stop-color="#FF928E"/>
<stop offset="1" stop-color="#FE7062"/>
</linearGradient>
<linearGradient id="paint40_linear_57141_1849" x1="72.0478" y1="73.5322" x2="87.3906" y2="95.6049" gradientUnits="userSpaceOnUse">
<stop stop-color="#FF928E"/>
<stop offset="1" stop-color="#FE7062"/>
</linearGradient>
<linearGradient id="paint41_linear_57141_1849" x1="69.8121" y1="75.0862" x2="85.1549" y2="97.159" gradientUnits="userSpaceOnUse">
<stop stop-color="#FF928E"/>
<stop offset="1" stop-color="#FE7062"/>
</linearGradient>
<linearGradient id="paint42_linear_57141_1849" x1="71.3928" y1="73.9875" x2="86.7356" y2="96.0603" gradientUnits="userSpaceOnUse">
<stop stop-color="#FF928E"/>
<stop offset="1" stop-color="#FE7062"/>
</linearGradient>
<linearGradient id="paint43_linear_57141_1849" x1="75.4804" y1="144.241" x2="77.7986" y2="121.5" gradientUnits="userSpaceOnUse">
<stop stop-color="#09005D"/>
<stop offset="1" stop-color="#1A0F91"/>
</linearGradient>
<linearGradient id="paint44_linear_57141_1849" x1="86.8924" y1="180.892" x2="74.2167" y2="124.92" gradientUnits="userSpaceOnUse">
<stop stop-color="#FF928E"/>
<stop offset="1" stop-color="#FE7062"/>
</linearGradient>
<linearGradient id="paint45_linear_57141_1849" x1="60.374" y1="88.4504" x2="72.4747" y2="125.635" gradientUnits="userSpaceOnUse">
<stop stop-color="#09005D"/>
<stop offset="1" stop-color="#1A0F91"/>
</linearGradient>
<linearGradient id="paint46_linear_57141_1849" x1="98.5606" y1="73.7357" x2="103.897" y2="89.2746" gradientUnits="userSpaceOnUse">
<stop stop-color="#09005D"/>
<stop offset="1" stop-color="#1A0F91"/>
</linearGradient>
<linearGradient id="paint47_linear_57141_1849" x1="105.032" y1="75.7736" x2="102.391" y2="50.1285" gradientUnits="userSpaceOnUse">
<stop stop-color="#09005D"/>
<stop offset="1" stop-color="#1A0F91"/>
</linearGradient>
<linearGradient id="paint48_linear_57141_1849" x1="113.836" y1="76.6349" x2="105.69" y2="83.6224" gradientUnits="userSpaceOnUse">
<stop stop-color="#09005D"/>
<stop offset="1" stop-color="#1A0F91"/>
</linearGradient>
<linearGradient id="paint49_linear_57141_1849" x1="105.778" y1="88.2237" x2="116.551" y2="78.5136" gradientUnits="userSpaceOnUse">
<stop stop-color="#09005D"/>
<stop offset="1" stop-color="#1A0F91"/>
</linearGradient>
<linearGradient id="paint50_linear_57141_1849" x1="121.019" y1="74.8888" x2="134.841" y2="61.8795" gradientUnits="userSpaceOnUse">
<stop stop-color="#09005D"/>
<stop offset="1" stop-color="#1A0F91"/>
</linearGradient>
<linearGradient id="paint51_linear_57141_1849" x1="102.314" y1="60.6182" x2="100.364" y2="72.2102" gradientUnits="userSpaceOnUse">
<stop stop-color="#09005D"/>
<stop offset="1" stop-color="#1A0F91"/>
</linearGradient>
<linearGradient id="paint52_linear_57141_1849" x1="100.855" y1="88.7065" x2="101.685" y2="68.7138" gradientUnits="userSpaceOnUse">
<stop stop-color="#FF928E"/>
<stop offset="1" stop-color="#FE7062"/>
</linearGradient>
<linearGradient id="paint53_linear_57141_1849" x1="118.982" y1="75.7013" x2="122.552" y2="74.9024" gradientUnits="userSpaceOnUse">
<stop stop-color="#FF928E"/>
<stop offset="1" stop-color="#FE7062"/>
</linearGradient>
<linearGradient id="paint54_linear_57141_1849" x1="161.732" y1="129.525" x2="183.273" y2="129.781" gradientUnits="userSpaceOnUse">
<stop stop-color="#4F52FF"/>
<stop offset="1" stop-color="#4042E2"/>
</linearGradient>
<linearGradient id="paint55_linear_57141_1849" x1="172.83" y1="131.86" x2="156.52" y2="243.75" gradientUnits="userSpaceOnUse">
<stop stop-color="#4F52FF"/>
<stop offset="1" stop-color="#4042E2"/>
</linearGradient>
<linearGradient id="paint56_linear_57141_1849" x1="155.764" y1="129.339" x2="177.305" y2="129.595" gradientUnits="userSpaceOnUse">
<stop stop-color="#4F52FF"/>
<stop offset="1" stop-color="#4042E2"/>
</linearGradient>
</defs>
</svg>
